<svg width="31" height="31" viewBox="0 0 31 31" fill="none" xmlns="http://www.w3.org/2000/svg">
<path d="M25.8334 11.5472C25.8199 11.4285 25.7939 11.3116 25.7559 11.1984V11.0822C25.6937 10.9494 25.6109 10.8273 25.5104 10.7205L17.7604 2.97051C17.6537 2.87004 17.5316 2.7872 17.3988 2.72509H17.2696C17.144 2.65793 17.009 2.61003 16.8692 2.58301H9.04169C8.01397 2.58301 7.02835 2.99127 6.30165 3.71797C5.57494 4.44467 5.16669 5.43029 5.16669 6.45801V24.5413C5.16669 25.5691 5.57494 26.5547 6.30165 27.2814C7.02835 28.0081 8.01397 28.4163 9.04169 28.4163H21.9584C22.9861 28.4163 23.9717 28.0081 24.6984 27.2814C25.4251 26.5547 25.8334 25.5691 25.8334 24.5413V11.6247C25.8334 11.6247 25.8334 11.6247 25.8334 11.5472ZM18.0834 6.98759L21.4288 10.333H19.375C19.0324 10.333 18.7039 10.1969 18.4617 9.95469C18.2194 9.71245 18.0834 9.38391 18.0834 9.04134V6.98759ZM23.25 24.5413C23.25 24.8839 23.1139 25.2125 22.8717 25.4547C22.6295 25.6969 22.3009 25.833 21.9584 25.833H9.04169C8.69912 25.833 8.37058 25.6969 8.12834 25.4547C7.88611 25.2125 7.75002 24.8839 7.75002 24.5413V6.45801C7.75002 6.11544 7.88611 5.7869 8.12834 5.54466C8.37058 5.30243 8.69912 5.16634 9.04169 5.16634H15.5V9.04134C15.5 10.0691 15.9083 11.0547 16.635 11.7814C17.3617 12.5081 18.3473 12.9163 19.375 12.9163H23.25V24.5413ZM17.1663 18.4576L16.7917 18.8451V15.4997C16.7917 15.1571 16.6556 14.8286 16.4134 14.5863C16.1711 14.3441 15.8426 14.208 15.5 14.208C15.1574 14.208 14.8289 14.3441 14.5867 14.5863C14.3444 14.8286 14.2084 15.1571 14.2084 15.4997V18.8451L13.8338 18.4576C13.5905 18.2144 13.2607 18.0777 12.9167 18.0777C12.5727 18.0777 12.2428 18.2144 11.9996 18.4576C11.7564 18.7008 11.6197 19.0307 11.6197 19.3747C11.6197 19.7186 11.7564 20.0485 11.9996 20.2918L14.5829 22.8751C14.7058 22.9927 14.8506 23.0849 15.0092 23.1463C15.1638 23.2147 15.331 23.25 15.5 23.25C15.6691 23.25 15.8362 23.2147 15.9909 23.1463C16.1494 23.0849 16.2943 22.9927 16.4171 22.8751L19.0004 20.2918C19.2437 20.0485 19.3803 19.7186 19.3803 19.3747C19.3803 19.0307 19.2437 18.7008 19.0004 18.4576C18.7572 18.2144 18.4273 18.0777 18.0834 18.0777C17.7394 18.0777 17.4095 18.2144 17.1663 18.4576Z" fill="white"/>
</svg>
