<svg width="29" height="29" viewBox="0 0 29 29" fill="none" xmlns="http://www.w3.org/2000/svg">
<path d="M16.9433 8.45866H18.1516C18.4719 8.45907 18.779 8.58651 19.0055 8.81303C19.2321 9.03954 19.3595 9.34665 19.3599 9.66699V10.8753C19.3599 11.1958 19.4872 11.5031 19.7138 11.7297C19.9404 11.9563 20.2478 12.0837 20.5683 12.0837C20.8887 12.0837 21.1961 11.9563 21.4227 11.7297C21.6493 11.5031 21.7766 11.1958 21.7766 10.8753V9.66699C21.7755 8.7059 21.3933 7.78448 20.7137 7.10489C20.0341 6.42529 19.1127 6.04304 18.1516 6.04199H16.9433C16.6228 6.04199 16.3154 6.1693 16.0888 6.3959C15.8622 6.62251 15.7349 6.92985 15.7349 7.25032C15.7349 7.57079 15.8622 7.87814 16.0888 8.10474C16.3154 8.33135 16.6228 8.45866 16.9433 8.45866ZM12.1099 19.3337H10.9016C10.5812 19.3332 10.2741 19.2058 10.0476 18.9793C9.82111 18.7528 9.69367 18.4457 9.69325 18.1253V16.917C9.69325 16.5965 9.56595 16.2892 9.33934 16.0626C9.11273 15.836 8.80539 15.7087 8.48492 15.7087C8.16445 15.7087 7.85711 15.836 7.6305 16.0626C7.40389 16.2892 7.27659 16.5965 7.27659 16.917V18.1253C7.27764 19.0864 7.65989 20.0078 8.33948 20.6874C9.01908 21.367 9.9405 21.7493 10.9016 21.7503H12.1099C12.4304 21.7503 12.7377 21.623 12.9643 21.3964C13.1909 21.1698 13.3183 20.8625 13.3183 20.542C13.3183 20.2215 13.1909 19.9142 12.9643 19.6876C12.7377 19.461 12.4304 19.3337 12.1099 19.3337ZM25.4016 18.1253C25.7221 18.1253 26.0294 17.998 26.256 17.7714C26.4826 17.5448 26.6099 17.2375 26.6099 16.917C26.6099 16.5965 26.4826 16.2892 26.256 16.0626C26.0294 15.836 25.7221 15.7087 25.4016 15.7087H21.7766V15.1045C21.7766 14.784 21.6493 14.4767 21.4227 14.2501C21.1961 14.0235 20.8887 13.8962 20.5683 13.8962C20.2478 13.8962 19.9404 14.0235 19.7138 14.2501C19.4872 14.4767 19.3599 14.784 19.3599 15.1045V15.7087H15.7349C15.4145 15.7087 15.1071 15.836 14.8805 16.0626C14.6539 16.2892 14.5266 16.5965 14.5266 16.917C14.5266 17.2375 14.6539 17.5448 14.8805 17.7714C15.1071 17.998 15.4145 18.1253 15.7349 18.1253H21.9992C21.7259 19.2358 21.2213 20.2762 20.5184 21.1784C20.2308 20.8055 19.9764 20.4082 19.7582 19.9909C19.6858 19.8498 19.5863 19.7242 19.4655 19.6215C19.3446 19.5188 19.2047 19.4409 19.0537 19.3922C18.9027 19.3435 18.7436 19.3251 18.5855 19.3379C18.4273 19.3508 18.2733 19.3946 18.1321 19.467C17.991 19.5394 17.8654 19.6388 17.7627 19.7597C17.66 19.8806 17.582 20.0205 17.5334 20.1715C17.4351 20.4765 17.462 20.8079 17.6082 21.0931C17.9336 21.7219 18.3219 22.3162 18.7671 22.8669C17.8904 23.5034 16.8935 23.9552 15.837 24.1948C15.5244 24.2637 15.252 24.4538 15.0795 24.7234C14.9069 24.993 14.8484 25.32 14.9167 25.6327C14.985 25.9454 15.1745 26.2182 15.4437 26.3913C15.7129 26.5644 16.0398 26.6236 16.3526 26.556C17.8687 26.2207 19.2908 25.5513 20.5153 24.5965C21.7501 25.5518 23.1816 26.2208 24.7065 26.5554C24.8615 26.5896 25.0217 26.5929 25.1779 26.5651C25.3341 26.5374 25.4834 26.4792 25.6171 26.3938C25.7509 26.3083 25.8665 26.1974 25.9573 26.0673C26.0482 25.9372 26.1125 25.7905 26.1467 25.6356C26.1809 25.4806 26.1842 25.3204 26.1565 25.1642C26.1287 25.008 26.0705 24.8587 25.9851 24.725C25.8997 24.5912 25.7888 24.4756 25.6587 24.3848C25.5286 24.2939 25.3819 24.2295 25.2269 24.1954C24.1633 23.9589 23.1582 23.511 22.2712 22.8782C23.3885 21.5028 24.1416 19.8683 24.4612 18.1253H25.4016ZM10.9375 13.5852C11.0161 13.8953 11.2144 14.1616 11.489 14.3257C11.7635 14.4898 12.0919 14.5384 12.4022 14.4608C12.7125 14.3831 12.9794 14.1857 13.1444 13.9116C13.3093 13.6376 13.3589 13.3093 13.2822 12.9988L11.1588 4.50443C11.0096 3.90817 10.6655 3.37887 10.181 3.00065C9.69652 2.62243 9.09952 2.41699 8.48488 2.41699C7.87025 2.41699 7.27325 2.62243 6.78877 3.00065C6.30429 3.37887 5.96012 3.90817 5.81098 4.50443L3.68755 12.9988C3.61088 13.3093 3.66045 13.6376 3.8254 13.9116C3.99036 14.1857 4.25724 14.3831 4.56754 14.4608C4.87785 14.5384 5.20627 14.4898 5.48083 14.3257C5.75538 14.1616 5.95367 13.8953 6.03223 13.5852L6.70964 10.8753H10.2601L10.9375 13.5852ZM7.3138 8.45866L8.15566 5.0909C8.18095 5.02404 8.226 4.96647 8.28481 4.92584C8.34362 4.8852 8.4134 4.86344 8.48488 4.86344C8.55636 4.86344 8.62615 4.8852 8.68496 4.92584C8.74377 4.96647 8.78882 5.02404 8.81411 5.0909L9.65598 8.45866H7.3138Z" fill="white"/>
</svg>
