<svg width="33" height="33" viewBox="0 0 33 33" fill="none" xmlns="http://www.w3.org/2000/svg">
<path d="M28.875 17.5862C28.6587 19.9268 27.7803 22.1573 26.3426 24.0168C24.9049 25.8764 22.9673 27.288 20.7566 28.0865C18.5459 28.885 16.1535 29.0374 13.8593 28.5259C11.5651 28.0143 9.4641 26.86 7.80205 25.1979C6.13999 23.5359 4.98565 21.4349 4.47411 19.1407C3.96257 16.8465 4.11497 14.4541 4.91349 12.2434C5.71202 10.0327 7.12363 8.09513 8.98315 6.65741C10.8427 5.21969 13.0732 4.34129 15.4137 4.125C14.0434 5.97887 13.384 8.26299 13.5555 10.5619C13.7269 12.8609 14.7178 15.022 16.3479 16.6521C17.978 18.2822 20.1391 19.2731 22.438 19.4445C24.737 19.616 27.0211 18.9566 28.875 17.5862V17.5862Z" stroke="white" stroke-width="2" stroke-linecap="round" stroke-linejoin="round"/>
</svg>
